<svg width="23" height="23" viewBox="0 0 23 23" fill="none" xmlns="http://www.w3.org/2000/svg">
<path d="M11.5 2.875V5.03125M17.5988 5.40117L16.0741 6.92588M20.125 11.5H17.9687M17.5988 17.5988L16.0741 16.0741M11.5 17.9687V20.125M6.92588 16.0741L5.40117 17.5988M5.03125 11.5H2.875M6.92588 6.92588L5.40117 5.40117M15.0937 11.5C15.0937 12.4531 14.7151 13.3672 14.0412 14.0412C13.3672 14.7151 12.4531 15.0937 11.5 15.0937C10.5469 15.0937 9.63279 14.7151 8.95883 14.0412C8.28488 13.3672 7.90625 12.4531 7.90625 11.5C7.90625 10.5469 8.28488 9.63279 8.95883 8.95883C9.63279 8.28488 10.5469 7.90625 11.5 7.90625C12.4531 7.90625 13.3672 8.28488 14.0412 8.95883C14.7151 9.63279 15.0937 10.5469 15.0937 11.5Z" stroke="white" stroke-width="1.5" stroke-linecap="round" stroke-linejoin="round"/>
</svg>
